<svg xmlns="http://www.w3.org/2000/svg" viewBox="0 0 128 32" aria-hidden="true">
  <rect x="0" y="0" width="128" height="32" rx="6" fill="#F36F21"/>
  <g fill="#FFFFFF">
    <path d="M20 22V10h4.2v4.2h.1c.7-1.3 2.1-2.4 4.2-2.4 3 0 5 2.1 5 5.6V22H29v-4.6c0-1.5-.8-2.5-2.2-2.5-1.5 0-2.6 1-2.6 3V22H20z"/>
    <path d="M47 22h-4.2V10H47v12zM44.8 8c-1.3 0-2.3-1-2.3-2.2C42.5 4.4 43.5 3.5 44.8 3.5S47 4.4 47 5.8C47 7 46 8 44.8 8z"/>
    <path d="M56.5 22c-3.6 0-6.1-2.4-6.1-6s2.5-6 6.1-6c3.6 0 6.1 2.4 6.1 6s-2.5 6-6.1 6zm0-3.2c1.4 0 2.4-1.2 2.4-2.8 0-1.6-1-2.8-2.4-2.8s-2.4 1.2-2.4 2.8c0 1.6 1 2.8 2.4 2.8z"/>
    <path d="M71.6 22H67.4V3.8h4.2V22z"/>
    <path d="M79.8 22c-3 0-5.1-1.7-5.1-4.3 0-2.6 2-4 5.2-4.3l3.1-.3v-.1c0-1-.7-1.7-2-1.7-1.3 0-2.7.5-4.1 1.2l-1.3-2.9c1.8-1 3.9-1.7 6.1-1.7 3.5 0 5.6 1.8 5.6 5.1V22H83v-1.7h-.1c-.8 1.2-2.1 1.7-3.1 1.7zm1.1-3c1.2 0 2.3-.9 2.3-2V15l-2.2.2c-1.4.1-2.3.8-2.3 1.9 0 1 .9 1.9 2.2 1.9z"/>
  </g>
</svg>
